<?xml version="1.0" encoding="UTF-8"?>
<svg xmlns="http://www.w3.org/2000/svg" version="1.1" width="150" height="150" viewBox="0 0 150 150"><rect x="0" y="0" width="150" height="150" fill="#ffffff"/><g transform="scale(5.172)"><g transform="translate(0,0)"><path fill-rule="evenodd" d="M9 0L9 1L8 1L8 2L9 2L9 3L8 3L8 4L10 4L10 7L11 7L11 4L12 4L12 5L13 5L13 6L12 6L12 9L14 9L14 11L15 11L15 12L12 12L12 11L13 11L13 10L11 10L11 11L10 11L10 9L11 9L11 8L6 8L6 9L5 9L5 8L0 8L0 9L1 9L1 10L0 10L0 15L1 15L1 16L0 16L0 21L1 21L1 18L2 18L2 19L4 19L4 20L2 20L2 21L4 21L4 20L5 20L5 21L7 21L7 20L6 20L6 19L7 19L7 18L6 18L6 19L5 19L5 17L8 17L8 18L9 18L9 19L8 19L8 23L9 23L9 24L8 24L8 29L9 29L9 25L10 25L10 26L12 26L12 27L13 27L13 25L14 25L14 26L15 26L15 28L12 28L12 29L15 29L15 28L17 28L17 29L19 29L19 28L21 28L21 29L22 29L22 27L24 27L24 28L23 28L23 29L25 29L25 28L26 28L26 29L27 29L27 28L28 28L28 26L29 26L29 23L28 23L28 25L27 25L27 24L26 24L26 23L27 23L27 22L25 22L25 20L26 20L26 21L28 21L28 22L29 22L29 21L28 21L28 19L27 19L27 17L28 17L28 18L29 18L29 17L28 17L28 16L29 16L29 15L27 15L27 14L29 14L29 11L28 11L28 13L27 13L27 12L26 12L26 10L29 10L29 9L28 9L28 8L27 8L27 9L26 9L26 8L25 8L25 9L24 9L24 8L23 8L23 9L22 9L22 8L21 8L21 6L20 6L20 7L19 7L19 5L20 5L20 4L21 4L21 3L19 3L19 1L20 1L20 2L21 2L21 1L20 1L20 0L19 0L19 1L18 1L18 3L17 3L17 2L16 2L16 1L17 1L17 0L16 0L16 1L14 1L14 3L13 3L13 4L12 4L12 2L13 2L13 1L11 1L11 2L10 2L10 0ZM10 3L10 4L11 4L11 3ZM13 4L13 5L17 5L17 8L15 8L15 7L16 7L16 6L15 6L15 7L14 7L14 6L13 6L13 8L14 8L14 9L15 9L15 10L17 10L17 11L16 11L16 12L15 12L15 13L13 13L13 15L12 15L12 13L11 13L11 12L10 12L10 13L9 13L9 9L6 9L6 10L5 10L5 12L4 12L4 10L2 10L2 11L1 11L1 12L2 12L2 11L3 11L3 13L2 13L2 15L4 15L4 14L3 14L3 13L5 13L5 12L7 12L7 13L6 13L6 14L5 14L5 15L6 15L6 16L8 16L8 17L9 17L9 18L10 18L10 19L11 19L11 20L9 20L9 23L11 23L11 24L10 24L10 25L11 25L11 24L12 24L12 25L13 25L13 24L14 24L14 25L15 25L15 26L16 26L16 25L17 25L17 26L19 26L19 27L22 27L22 26L25 26L25 25L26 25L26 24L25 24L25 25L22 25L22 26L21 26L21 25L20 25L20 24L19 24L19 25L17 25L17 24L18 24L18 22L20 22L20 18L19 18L19 17L21 17L21 18L22 18L22 19L23 19L23 18L24 18L24 17L25 17L25 14L22 14L22 13L26 13L26 12L22 12L22 11L23 11L23 10L24 10L24 9L23 9L23 10L22 10L22 9L20 9L20 8L19 8L19 9L20 9L20 10L17 10L17 8L18 8L18 5L19 5L19 4ZM8 5L8 7L9 7L9 5ZM6 10L6 11L7 11L7 10ZM20 10L20 12L16 12L16 13L19 13L19 14L20 14L20 16L21 16L21 17L22 17L22 18L23 18L23 17L24 17L24 16L23 16L23 15L22 15L22 16L21 16L21 14L20 14L20 12L21 12L21 13L22 13L22 12L21 12L21 10ZM7 13L7 14L6 14L6 15L7 15L7 14L8 14L8 16L9 16L9 17L10 17L10 16L9 16L9 14L8 14L8 13ZM10 13L10 15L11 15L11 16L12 16L12 15L11 15L11 13ZM15 14L15 15L14 15L14 16L13 16L13 17L11 17L11 18L13 18L13 17L14 17L14 20L13 20L13 19L12 19L12 20L11 20L11 22L13 22L13 23L12 23L12 24L13 24L13 23L14 23L14 24L15 24L15 25L16 25L16 23L17 23L17 22L15 22L15 21L19 21L19 20L17 20L17 17L19 17L19 15L18 15L18 16L17 16L17 17L16 17L16 16L15 16L15 15L16 15L16 14ZM26 15L26 17L27 17L27 15ZM14 16L14 17L15 17L15 18L16 18L16 17L15 17L15 16ZM22 16L22 17L23 17L23 16ZM2 17L2 18L4 18L4 17ZM18 18L18 19L19 19L19 18ZM26 19L26 20L27 20L27 19ZM12 20L12 21L13 21L13 22L14 22L14 23L15 23L15 22L14 22L14 21L15 21L15 20L14 20L14 21L13 21L13 20ZM21 21L21 24L24 24L24 21ZM22 22L22 23L23 23L23 22ZM10 27L10 29L11 29L11 27ZM17 27L17 28L18 28L18 27ZM26 27L26 28L27 28L27 27ZM0 0L0 7L7 7L7 0ZM1 1L1 6L6 6L6 1ZM2 2L2 5L5 5L5 2ZM22 0L22 7L29 7L29 0ZM23 1L23 6L28 6L28 1ZM24 2L24 5L27 5L27 2ZM0 22L0 29L7 29L7 22ZM1 23L1 28L6 28L6 23ZM2 24L2 27L5 27L5 24Z" fill="#000000"/></g></g></svg>
