<?xml version="1.0" encoding="UTF-8"?>
<svg xmlns="http://www.w3.org/2000/svg" version="1.1" width="150" height="150" viewBox="0 0 150 150"><rect x="0" y="0" width="150" height="150" fill="#ffffff"/><g transform="scale(5.172)"><g transform="translate(0,0)"><path fill-rule="evenodd" d="M8 0L8 4L9 4L9 5L8 5L8 7L9 7L9 6L10 6L10 9L11 9L11 8L12 8L12 9L13 9L13 10L14 10L14 11L16 11L16 12L17 12L17 13L15 13L15 12L14 12L14 13L13 13L13 11L12 11L12 12L11 12L11 13L10 13L10 14L9 14L9 13L7 13L7 12L10 12L10 11L11 11L11 10L9 10L9 9L8 9L8 11L7 11L7 10L5 10L5 9L7 9L7 8L4 8L4 9L3 9L3 10L2 10L2 8L0 8L0 9L1 9L1 12L0 12L0 13L1 13L1 14L0 14L0 15L1 15L1 14L2 14L2 16L0 16L0 18L2 18L2 17L3 17L3 19L4 19L4 20L0 20L0 21L7 21L7 20L9 20L9 21L8 21L8 22L11 22L11 24L10 24L10 23L8 23L8 25L9 25L9 24L10 24L10 26L9 26L9 27L8 27L8 29L10 29L10 28L11 28L11 29L12 29L12 26L13 26L13 27L14 27L14 29L16 29L16 26L17 26L17 29L21 29L21 28L22 28L22 29L26 29L26 27L27 27L27 29L28 29L28 28L29 28L29 24L27 24L27 25L28 25L28 26L25 26L25 28L24 28L24 27L19 27L19 26L20 26L20 25L26 25L26 23L27 23L27 22L28 22L28 23L29 23L29 21L26 21L26 19L27 19L27 20L29 20L29 17L27 17L27 16L28 16L28 15L29 15L29 12L27 12L27 13L28 13L28 15L27 15L27 14L25 14L25 13L26 13L26 10L25 10L25 9L28 9L28 11L29 11L29 8L25 8L25 9L24 9L24 8L23 8L23 9L20 9L20 8L21 8L21 6L20 6L20 5L19 5L19 2L20 2L20 1L21 1L21 0L20 0L20 1L19 1L19 2L17 2L17 0L13 0L13 1L11 1L11 2L12 2L12 5L14 5L14 7L15 7L15 9L13 9L13 8L12 8L12 7L13 7L13 6L12 6L12 7L11 7L11 3L10 3L10 2L9 2L9 0ZM13 1L13 3L15 3L15 2L16 2L16 3L17 3L17 7L16 7L16 5L15 5L15 7L16 7L16 10L17 10L17 7L18 7L18 3L17 3L17 2L16 2L16 1L15 1L15 2L14 2L14 1ZM19 6L19 8L20 8L20 6ZM19 9L19 13L17 13L17 14L16 14L16 15L13 15L13 17L12 17L12 16L9 16L9 17L8 17L8 19L10 19L10 21L12 21L12 24L11 24L11 25L14 25L14 27L15 27L15 25L17 25L17 26L19 26L19 25L17 25L17 24L15 24L15 25L14 25L14 23L15 23L15 21L16 21L16 23L19 23L19 22L18 22L18 21L19 21L19 20L18 20L18 21L16 21L16 20L17 20L17 19L16 19L16 20L15 20L15 21L14 21L14 19L15 19L15 17L16 17L16 18L18 18L18 19L21 19L21 18L20 18L20 17L23 17L23 18L22 18L22 19L23 19L23 20L25 20L25 18L27 18L27 19L28 19L28 18L27 18L27 17L26 17L26 16L27 16L27 15L26 15L26 16L24 16L24 17L23 17L23 16L22 16L22 14L20 14L20 9ZM23 9L23 10L24 10L24 9ZM21 10L21 13L25 13L25 11L24 11L24 12L23 12L23 11L22 11L22 10ZM2 11L2 13L4 13L4 14L7 14L7 15L4 15L4 16L3 16L3 17L4 17L4 16L5 16L5 18L4 18L4 19L5 19L5 20L7 20L7 19L5 19L5 18L7 18L7 17L6 17L6 16L8 16L8 15L9 15L9 14L7 14L7 13L6 13L6 12L7 12L7 11L4 11L4 12L3 12L3 11ZM11 13L11 14L10 14L10 15L11 15L11 14L12 14L12 13ZM14 13L14 14L15 14L15 13ZM17 14L17 15L16 15L16 17L19 17L19 16L18 16L18 15L19 15L19 14ZM14 16L14 17L15 17L15 16ZM10 17L10 19L13 19L13 18L12 18L12 17ZM24 17L24 18L25 18L25 17ZM12 20L12 21L13 21L13 23L14 23L14 21L13 21L13 20ZM21 21L21 24L24 24L24 21ZM22 22L22 23L23 23L23 22ZM10 26L10 27L11 27L11 26ZM18 27L18 28L19 28L19 27ZM0 0L0 7L7 7L7 0ZM1 1L1 6L6 6L6 1ZM2 2L2 5L5 5L5 2ZM22 0L22 7L29 7L29 0ZM23 1L23 6L28 6L28 1ZM24 2L24 5L27 5L27 2ZM0 22L0 29L7 29L7 22ZM1 23L1 28L6 28L6 23ZM2 24L2 27L5 27L5 24Z" fill="#000000"/></g></g></svg>
